<svg
  viewBox="150 120 212 230"
  xmlns="http://www.w3.org/2000/svg"
  preserveAspectRatio="xMidYMid meet"
>
  <circle cx="256" cy="235" r="106" fill="#0a0e12" />
  <path
    d="m 256,139.86328 -8.57227,2.5293 c -3.70193,13.68593 -4.20507,19.46875 -4.20507,19.46875 l -45.31055,18.23047 -0.0371,1.6582 42.70508,0.34961 c 0,0 -1.88959,15.46274 -3.12696,17.18164 -1.2373,1.7189 -18.11919,7.77336 -19.99218,7.72656 -1.87299,-0.0468 -14.23438,-6.24219 -14.23438,-6.24219 l -2.14062,1.53907 12.3203,5.94531 L 166,223.875 V 226 l 2.5,0.0234 4.46875,-1.61719 61.90625,-0.28125 -10.5332,38.25 c -0.20748,0.74099 -0.62839,1.89053 -1.38086,2.44922 -0.76349,0.56688 -2.00263,0.67592 -2.95703,0.36523 l -49.96485,-18.65234 0.0937,2.25781 52.20508,19.71875 c -13.74165,46.06936 -29.75278,67.42863 -37.09375,73.95313 l 6.37109,-0.15821 c 9.0487,-8.82443 22.62054,-38.55923 25.06836,-46.33984 l 5.48047,-1.85742 c -11.87111,36.60606 -14.44442,46.51016 -19.13672,46.71484 4.05309,1.80922 8.16699,1.09238 12.47852,0.88867 L 256,312.97656 l 40.49414,28.73828 c 4.31153,0.20371 8.42543,0.92055 12.47852,-0.88867 -4.6923,-0.20468 -7.26561,-10.10878 -19.13672,-46.71484 l 5.48047,1.85742 c 2.44782,7.78061 16.01966,37.51541 25.06836,46.33984 l 6.37109,0.15821 c -7.34097,-6.5245 -23.3521,-27.88377 -37.09375,-73.95313 l 52.20508,-19.71875 0.0937,-2.25781 -49.96485,18.65234 c -0.9544,0.31069 -2.19354,0.20165 -2.95703,-0.36523 -0.75247,-0.55869 -1.17338,-1.70823 -1.38086,-2.44922 l -10.5332,-38.25 61.90625,0.28125 4.4688,1.61719 L 346,226 v -2.125 l -47.40625,-15.625 12.32031,-5.94531 -2.14062,-1.53907 c 0,0 -12.36139,6.19539 -14.23438,6.24219 -1.87299,0.0468 -18.75488,-6.00766 -19.99218,-7.72656 -1.23738,-1.7189 -3.12696,-17.18164 -3.12696,-17.18164 L 314.125,181.75 l -0.0371,-1.6582 -45.31055,-18.23047 c 0,0 -0.50314,-5.78282 -4.20507,-19.46875 z m -6.08203,3.43555 1.24023,0.33398 -4.24609,14.71485 c -0.45235,-2.63066 2.08313,-10.86724 3.00586,-15.04883 z m 12.16406,0 c 0.92273,4.18159 3.45821,12.41817 3.00586,15.04883 l -4.24609,-14.71485 z m -6.97851,1.15625 L 256,144.5 l 0.89648,-0.0449 c 2.31526,6.29925 6.01708,12.94 6.94532,18.89844 L 256,170.0625 l -7.8418,-6.70898 c 0.92824,-5.95844 4.63006,-12.59919 6.94532,-18.89844 z M 246.3125,165 l 7.8125,6.875 -9.6875,6.625 z m 19.375,0 1.875,13.5 -9.6875,-6.625 z m -23.0625,0.3125 -1.125,11.3125 -10.6875,-6.75 z m 26.75,0 11.8125,4.5625 -10.6875,6.75 z m -41.3125,5.75 12.875,8.75 L 203,180.125 Z m 55.875,0 L 309,180.125 271.0625,179.8125 Z M 256,173.4375 264.6582,179.7207 256,179.75 247.3418,179.7207 Z M 243.69141,181.95508 256,182.0625 268.30859,181.95508 256,191.94141 Z m -0.20313,2.84375 9.92188,7.91015 -12.1543,10.18555 z m 25.02344,0 2.23242,18.0957 -12.1543,-10.18555 z M 256,194.375 269.125,204.6875 256,213.875 242.875,204.6875 Z m -18.375,8.5 -1.875,13.9375 -14.4375,-8.1875 z m 36.75,0 16.3125,5.75 -14.4375,8.1875 z m -33.80469,2.89258 12.90625,9.94336 -8.81836,5.63476 -4.15429,-0.0664 -2.07618,-1.41407 z m 30.85938,0 2.14258,14.09765 -2.07618,1.41407 -4.15429,0.0664 -8.81836,-5.63476 z m -54.17969,4.41992 18.4375,10.4375 -1.4375,1.4375 -14.875,-0.25 -14.9375,-7.6875 z m 77.5,0 12.8125,3.9375 -14.9375,7.6875 -14.875,0.25 -1.4375,-1.4375 z m -93.625,5 12.0625,6.6875 -32.9375,-0.0625 z m 109.75,0 20.875,6.625 -32.9375,0.0625 z M 256,217.75 l 6,3.5625 -6,0.1875 -6,-0.1875 z M 241.3125,224.5 256,224.6875 270.6875,224.5 256,236.5625 Z m -2.17773,1.81836 14.82617,12.1543 -18.71485,14.62695 z m 33.73046,0 3.88868,26.78125 -18.71485,-14.62695 z M 256,240.12109 275.75781,256.58008 256,269.89453 236.24219,256.58008 Z m -22.3125,0.81641 0.5,1.875 -4.80469,20.91406 -3.20898,1.97461 z m 44.625,0 7.51367,24.76367 -3.20898,-1.97461 -4.80469,-20.91406 z m -44.12695,17.11133 18.62695,13.34765 -26.07422,17.03711 z m 43.6289,0 7.44727,30.38476 -26.07422,-17.03711 z m -48.74609,7.04101 -5.88086,25.59766 -5.125,1.75 7.59375,-25.02734 z m 53.86328,0 3.41211,2.32032 7.59375,25.02734 -5.125,-1.75 z M 256,273.07617 283.45312,291.2168 256,310.43164 228.54688,291.2168 Z M 225.9375,292.875 252.375,311.25 212.1875,338 Z m 60.125,0 13.75,45.125 -40.1875,-26.75 z"
    fill="#ffffff"
  />
</svg>
